<svg width="24" height="24" viewBox="0 0 24 24" fill="none" xmlns="http://www.w3.org/2000/svg">
<path d="M12 12.95L15.175 16.125C15.3083 16.2583 15.4625 16.3292 15.6375 16.3375C15.8125 16.3458 15.975 16.275 16.125 16.125C16.275 15.975 16.35 15.8167 16.35 15.65C16.35 15.4833 16.275 15.325 16.125 15.175L12.95 12L16.125 8.825C16.2583 8.69167 16.3292 8.5375 16.3375 8.3625C16.3458 8.1875 16.275 8.025 16.125 7.875C15.975 7.725 15.8167 7.65 15.65 7.65C15.4833 7.65 15.325 7.725 15.175 7.875L12 11.05L8.825 7.875C8.69167 7.74167 8.5375 7.67083 8.3625 7.6625C8.1875 7.65417 8.025 7.725 7.875 7.875C7.725 8.025 7.65 8.18333 7.65 8.35C7.65 8.51667 7.725 8.675 7.875 8.825L11.05 12L7.875 15.175C7.74167 15.3083 7.67083 15.4625 7.6625 15.6375C7.65417 15.8125 7.725 15.975 7.875 16.125C8.025 16.275 8.18333 16.35 8.35 16.35C8.51667 16.35 8.675 16.275 8.825 16.125L12 12.95ZM12.0043 21.5C10.6908 21.5 9.45567 21.2507 8.299 20.7522C7.14233 20.2537 6.13625 19.5772 5.28075 18.7225C4.42508 17.8678 3.74775 16.8629 3.24875 15.7078C2.74958 14.5524 2.5 13.3179 2.5 12.0043C2.5 10.6864 2.74975 9.44733 3.24925 8.287C3.74875 7.12667 4.42667 6.11725 5.283 5.25875C6.13933 4.40042 7.14425 3.72608 8.29775 3.23575C9.45142 2.74525 10.6841 2.5 11.9957 2.5C13.3134 2.5 14.5523 2.74492 15.7125 3.23475C16.8728 3.72458 17.8823 4.39833 18.7408 5.256C19.5994 6.11367 20.2739 7.12217 20.7642 8.2815C21.2547 9.44083 21.5 10.6796 21.5 11.9978C21.5 13.3159 21.2551 14.5505 20.7652 15.7015C20.2754 16.8525 19.6018 17.8566 18.7443 18.7138C17.8869 19.5711 16.8787 20.2498 15.7197 20.75C14.5606 21.25 13.3221 21.5 12.0043 21.5ZM12 20.15C14.2752 20.15 16.2023 19.3605 17.7815 17.7815C19.3605 16.2023 20.15 14.2752 20.15 12C20.15 9.72483 19.3605 7.79767 17.7815 6.2185C16.2023 4.6395 14.2752 3.85 12 3.85C9.72483 3.85 7.79767 4.6395 6.2185 6.2185C4.6395 7.79767 3.85 9.72483 3.85 12C3.85 14.2752 4.6395 16.2023 6.2185 17.7815C7.79767 19.3605 9.72483 20.15 12 20.15Z" fill="#141414"/>
</svg>
