<svg xmlns="http://www.w3.org/2000/svg" viewBox="0 0 24 24"><path d="M5.696 13.05a.998.998 0 0 1-.74-.31 1.022 1.022 0 0 1-.306-.744c0-.29.103-.537.31-.74.206-.204.454-.306.744-.306s.537.103.74.31c.204.206.306.454.306.744s-.103.537-.31.74a1.022 1.022 0 0 1-.744.306Zm6.3 0a.998.998 0 0 1-.74-.31 1.022 1.022 0 0 1-.306-.744c0-.29.103-.537.31-.74.206-.204.454-.306.744-.306s.537.103.74.31c.204.206.306.454.306.744s-.103.537-.31.74a1.022 1.022 0 0 1-.744.306Zm6.3 0a.998.998 0 0 1-.74-.31 1.023 1.023 0 0 1-.306-.744c0-.29.103-.537.31-.74.206-.204.454-.306.744-.306s.537.103.74.31c.204.206.306.454.306.744s-.103.537-.31.74a1.022 1.022 0 0 1-.744.306Z"/></svg>