<svg width="20" height="20" viewBox="0 0 20 20" fill="none" xmlns="http://www.w3.org/2000/svg">
<path d="M8.55 12.3L6.125 9.875C5.99167 9.74167 5.8375 9.67083 5.6625 9.6625C5.4875 9.65417 5.325 9.725 5.175 9.875C5.025 10.025 4.95 10.1833 4.95 10.35C4.95 10.5167 5.025 10.675 5.175 10.825L7.8 13.45C8.01367 13.6667 8.26292 13.775 8.54775 13.775C8.83258 13.775 9.08333 13.6667 9.3 13.45L14.825 7.925C14.9583 7.79167 15.0292 7.6375 15.0375 7.4625C15.0458 7.2875 14.975 7.125 14.825 6.975C14.675 6.825 14.5167 6.75 14.35 6.75C14.1833 6.75 14.025 6.825 13.875 6.975L8.55 12.3ZM10.0043 19.5C8.69075 19.5 7.45567 19.2507 6.299 18.7522C5.14233 18.2537 4.13625 17.5772 3.28075 16.7225C2.42508 15.8678 1.74775 14.8629 1.24875 13.7078C0.749583 12.5524 0.5 11.3179 0.5 10.0043C0.5 8.68642 0.74975 7.44733 1.24925 6.287C1.74875 5.12667 2.42667 4.11725 3.283 3.25875C4.13933 2.40042 5.14425 1.72608 6.29775 1.23575C7.45142 0.74525 8.68408 0.5 9.99575 0.5C11.3134 0.5 12.5523 0.744917 13.7125 1.23475C14.8728 1.72458 15.8823 2.39833 16.7408 3.256C17.5994 4.11367 18.2739 5.12217 18.7642 6.2815C19.2547 7.44083 19.5 8.67958 19.5 9.99775C19.5 11.3159 19.2551 12.5505 18.7652 13.7015C18.2754 14.8525 17.6018 15.8566 16.7443 16.7138C15.8869 17.5711 14.8787 18.2498 13.7197 18.75C12.5606 19.25 11.3221 19.5 10.0043 19.5ZM10 18.15C12.2752 18.15 14.2023 17.3605 15.7815 15.7815C17.3605 14.2023 18.15 12.2752 18.15 10C18.15 7.72483 17.3605 5.79767 15.7815 4.2185C14.2023 2.6395 12.2752 1.85 10 1.85C7.72483 1.85 5.79767 2.6395 4.2185 4.2185C2.6395 5.79767 1.85 7.72483 1.85 10C1.85 12.2752 2.6395 14.2023 4.2185 15.7815C5.79767 17.3605 7.72483 18.15 10 18.15Z" fill="#141414"/>
</svg>
